<svg width="14" height="14" viewBox="0 0 14 14" fill="none" xmlns="http://www.w3.org/2000/svg">
<path d="M1.33333 4H12V12.6667C12 13.0349 11.7015 13.3333 11.3333 13.3333H2C1.63181 13.3333 1.33333 13.0349 1.33333 12.6667V4ZM2.66667 5.33333V12H10.6667V5.33333H2.66667ZM4.66667 6.66667H6V10.6667H4.66667V6.66667ZM7.33333 6.66667H8.66667V10.6667H7.33333V6.66667ZM3.33333 2V0.666667C3.33333 0.29848 3.63181 0 4 0H9.33333C9.70153 0 10 0.29848 10 0.666667V2H13.3333V3.33333H0V2H3.33333ZM4.66667 1.33333V2H8.66667V1.33333H4.66667Z" fill="#D32F2F"/>
</svg>
