<svg width="18" height="16" viewBox="0 0 18 16" fill="none" xmlns="http://www.w3.org/2000/svg">
<path d="M6 0.25C3.10051 0.25 0.75 2.60051 0.75 5.5C0.75 8.3995 3.10051 10.75 6 10.75H6.80317C6.76813 10.505 6.75 10.2546 6.75 10C6.75 9.74537 6.76813 9.49495 6.80317 9.25H6C3.92894 9.25 2.25 7.57105 2.25 5.5C2.25 3.42894 3.92894 1.75 6 1.75H12C14.071 1.75 15.75 3.42894 15.75 5.5C15.75 5.7571 15.7241 6.00813 15.6748 6.2506C16.114 6.6811 16.4778 7.1881 16.7448 7.75C17.0687 7.06803 17.25 6.3052 17.25 5.5C17.25 2.60051 14.8995 0.25 12 0.25H6ZM12 7.75C10.7573 7.75 9.75 8.75733 9.75 10C9.75 11.2427 10.7573 12.25 12 12.25C13.2427 12.25 14.25 11.2427 14.25 10C14.25 8.75733 13.2427 7.75 12 7.75ZM8.25 10C8.25 7.92895 9.92895 6.25 12 6.25C14.071 6.25 15.75 7.92895 15.75 10C15.75 10.7643 15.5213 11.4753 15.1287 12.0681L17.0303 13.9697L15.9697 15.0303L14.0681 13.1287C13.4753 13.5213 12.7643 13.75 12 13.75C9.92895 13.75 8.25 12.071 8.25 10Z" fill="#64748B"/>
</svg>
