<svg width="16" height="16" viewBox="0 0 16 16" fill="none" xmlns="http://www.w3.org/2000/svg">
<path d="M0.5 8C0.5 3.85786 3.85786 0.5 8 0.5C12.1421 0.5 15.5 3.85786 15.5 8C15.5 12.1421 12.1421 15.5 8 15.5H0.5L2.6967 13.3033C1.33947 11.9461 0.5 10.071 0.5 8ZM4.12132 14H8C11.3137 14 14 11.3137 14 8C14 4.68629 11.3137 2 8 2C4.68629 2 2 4.68629 2 8C2 9.6143 2.63843 11.1237 3.75736 12.2427L4.81802 13.3033L4.12132 14ZM7.25 3.5H8.75V12.5H7.25V3.5ZM4.25 5.75H5.75V10.25H4.25V5.75ZM10.25 5.75H11.75V10.25H10.25V5.75Z" fill="#64748B"/>
</svg>
