<svg width="16" height="14" viewBox="0 0 16 14" fill="none" xmlns="http://www.w3.org/2000/svg">
<path d="M14.7561 0.25C15.167 0.25 15.5 0.583713 15.5 0.99505V13.0049C15.5 13.4164 15.1585 13.75 14.7561 13.75H1.24385C0.833038 13.75 0.5 13.4163 0.5 13.0049V0.99505C0.5 0.58357 0.841483 0.25 1.24385 0.25H14.7561ZM14 1.75H2V12.25H14V1.75ZM12.5 9.25V10.75H3.5V9.25H12.5ZM8 3.25V7.75H3.5V3.25H8ZM12.5 6.25V7.75H9.5V6.25H12.5ZM6.5 4.75H5V6.25H6.5V4.75ZM12.5 3.25V4.75H9.5V3.25H12.5Z" fill="#64748B"/>
</svg>
