<svg width="14" height="17" viewBox="0 0 14 17" fill="none" xmlns="http://www.w3.org/2000/svg">
<path d="M11.5 11V9.5H12.25V2H2.5V9.52655C2.62247 9.50908 2.74768 9.5 2.875 9.5H4V11H2.875C2.25368 11 1.75 11.5037 1.75 12.125C1.75 12.7463 2.25368 13.25 2.875 13.25H5.5V14.75H2.875C1.42525 14.75 0.25 13.5747 0.25 12.125V2.75C0.25 1.50736 1.25736 0.5 2.5 0.5H13C13.4142 0.5 13.75 0.83579 13.75 1.25V14C13.75 14.4142 13.4142 14.75 13 14.75H10V13.25H12.25V11H11.5ZM3.25 2.75H4.75V4.25H3.25V2.75ZM3.25 5H4.75V6.5H3.25V5ZM8.5 11.75V16.25H7V11.75H4.75L7.75 8L10.75 11.75H8.5Z" fill="#64748B"/>
</svg>
