<svg width="16" height="16" viewBox="0 0 16 16" fill="none" xmlns="http://www.w3.org/2000/svg">
<path d="M5.75 0.84335V2.43614C3.55113 3.32622 2 5.48197 2 8C2 11.3137 4.68629 14 8 14C10.5181 14 12.6738 12.4488 13.5639 10.25H15.1567C14.2009 13.2928 11.3582 15.5 8 15.5C3.85786 15.5 0.5 12.1421 0.5 8C0.5 4.64177 2.70717 1.79905 5.75 0.84335ZM8 0.5C12.1421 0.5 15.5 3.85786 15.5 8C15.5 8.25313 15.4875 8.50333 15.4629 8.75H7.25V0.537035C7.49668 0.51254 7.74687 0.5 8 0.5ZM8.75 2.04642V7.25H13.9536C13.6152 4.53596 11.464 2.38486 8.75 2.04642Z" fill="#64748B"/>
</svg>
