<svg width="16" height="16" viewBox="0 0 16 16" fill="none" xmlns="http://www.w3.org/2000/svg">
<path d="M7.24992 0.537109L7.25 2.04648C4.29028 2.41554 2 4.94034 2 8.00007C2 11.3138 4.68629 14.0001 8 14.0001C9.38653 14.0001 10.6632 13.5297 11.6791 12.74L12.7467 13.8072C11.4537 14.8653 9.80105 15.5001 8 15.5001C3.85786 15.5001 0.5 12.1422 0.5 8.00007C0.5 4.11108 3.45996 0.913437 7.24992 0.537109ZM15.4629 8.75015C15.3132 10.2584 14.7166 11.6352 13.8075 12.7463L12.7399 11.6792C13.3851 10.8493 13.817 9.84552 13.9536 8.75L15.4629 8.75015ZM8.75082 0.537184C12.2937 0.889339 15.1111 3.70699 15.4629 7.25L13.9536 7.25007C13.6152 4.53629 11.4644 2.3853 8.75075 2.04657L8.75082 0.537184Z" fill="#64748B"/>
</svg>
